<svg xmlns="http://www.w3.org/2000/svg" viewBox="0 0 512 512" role="img" aria-label="Oracle des Ruines">
<defs>
 <radialGradient id="body" cx="35%" cy="25%" r="80%"><stop offset="0" stop-color="#f0ddff"/><stop offset=".52" stop-color="#725b98"/><stop offset="1" stop-color="#211a38"/></radialGradient>
 <radialGradient id="aura" cx="50%" cy="50%" r="50%"><stop offset="0" stop-color="#f0ddff" stop-opacity=".38"/><stop offset="1" stop-color="#f0ddff" stop-opacity="0"/></radialGradient>
 <filter id="glow"><feGaussianBlur stdDeviation="10" result="b"/><feMerge><feMergeNode in="b"/><feMergeNode in="SourceGraphic"/></feMerge></filter>
 <filter id="shadow"><feGaussianBlur in="SourceAlpha" stdDeviation="6"/><feOffset dy="10"/><feComponentTransfer><feFuncA type="linear" slope=".28"/></feComponentTransfer><feMerge><feMergeNode/><feMergeNode in="SourceGraphic"/></feMerge></filter>
</defs>
<ellipse cx="256" cy="446" rx="130" ry="28" fill="#05070b" opacity=".30"/>
<circle cx="256" cy="250" r="190" fill="url(#aura)" opacity=".28"/>
<g filter="url(#shadow)">
<path d="M258 105c85 0 149 89 137 195-10 96-64 171-137 171S132 396 121 300c-12-106 52-195 137-195Z" fill="url(#body)" stroke="#c8a5ff" stroke-width="16"/>
<path d="M171 208 109 130l88 34m151 43 67-84-96 36" fill="none" stroke="#8068b7" stroke-width="28" stroke-linecap="round"/>
<ellipse cx="220" cy="302" rx="17" ry="28" fill="#f3eaff"/><ellipse cx="301" cy="302" rx="17" ry="28" fill="#f3eaff"/>
<path d="M257 226v141" stroke="#d5c6ff" stroke-width="13"/><circle cx="257" cy="205" r="33" fill="none" stroke="#8ee9ff" stroke-width="14"/>
</g>
</svg>